<svg width="117" height="52" viewBox="0 0 117 52" fill="none" xmlns="http://www.w3.org/2000/svg">
  <g>
    <path d="M58.9501 50.9553L35.4917 0L12.1016 50.9553H20.1307L35.5914 17.0857L43.4337 34.6932H31.8249L28.2749 42.8243H47.1166L50.9335 50.9553H58.9501Z" fill="white"/>
    <path d="M85.502 26.9271C83.3783 24.2497 80.4036 22.3406 77.1223 21.5514C76.6334 21.4418 72.3196 20.4696 71.2824 20.1688C68.9107 19.4811 67.2535 17.2667 67.2535 14.784C67.2535 11.698 69.7438 9.18728 72.8049 9.18728C74.7317 9.18728 76.5103 10.203 77.516 11.8239L85.5964 10.1713C83.6821 4.79377 78.5099 1.08887 72.8049 1.08887C65.314 1.08887 59.2207 7.23199 59.2207 14.784C59.2207 21.0703 63.3207 26.5004 69.1956 27.99L69.4401 28.0479C70.23 28.2355 72.795 28.8453 75.2332 29.4224C76.797 29.7985 78.2161 30.7091 79.228 31.9839C80.267 33.2941 80.817 34.877 80.817 36.5604C80.817 36.9265 80.7891 37.2961 80.7289 37.6966L80.648 38.1288C80.3613 39.4589 79.7106 40.6821 78.767 41.6652C77.4602 43.0261 75.7176 43.818 73.8222 43.8968L73.5283 43.8986C71.792 43.8986 70.1051 43.2671 68.7777 42.12C68.393 41.7875 68.0479 41.4115 67.7424 41.0038L59.4679 42.6963C61.8036 48.1273 67.0701 51.8294 73.1194 51.9925C73.185 51.9943 73.4277 52.0016 73.54 52.0016C81.4272 52.0016 88.1245 45.7969 88.7868 37.8778L88.8219 37.4919C88.8407 37.1702 88.8506 36.8576 88.8506 36.5622C88.8506 33.0721 87.6616 29.6508 85.5029 26.9289L85.502 26.9271Z" fill="white"/>
    <path d="M0 2.16992V10.3164H0.00179744V50.9552H8.06602V10.3164H8.06782V2.16992H0Z" fill="white"/>
    <path d="M100.852 42.8242H92.7871V50.9552H100.852V42.8242Z" fill="#6EFF29"/>
    <path d="M92.8125 26.5371V34.6681H108.935V50.9556H117V26.5634L92.8125 26.5371Z" fill="#6EFF29"/>
  </g>
</svg>
